<svg width="12" height="12" viewBox="0 0 12 12" fill="none" xmlns="http://www.w3.org/2000/svg">
<path d="M4.59975 1.52225C4.65235 1.22088 4.92542 1 5.24539 1H6.75461C7.07458 1 7.34765 1.22088 7.40025 1.52225L7.52448 2.23394C7.56075 2.44175 7.70619 2.61484 7.89922 2.71687C7.94237 2.73968 7.98503 2.76324 8.02718 2.78754C8.21629 2.89658 8.4463 2.93048 8.65317 2.85648L9.36117 2.60321C9.6608 2.49602 9.99768 2.61139 10.1577 2.87599L10.9123 4.12401C11.0723 4.3886 11.0085 4.72485 10.7614 4.91903L10.1771 5.37838C10.0069 5.51215 9.92252 5.71873 9.92661 5.92918C9.92706 5.95274 9.92729 5.97634 9.92729 6C9.92729 6.02365 9.92706 6.04726 9.92661 6.07081C9.92252 6.28126 10.0069 6.48784 10.1771 6.62162L10.7614 7.08096C11.0085 7.27514 11.0723 7.61139 10.9123 7.87599L10.1577 9.12401C9.99768 9.3886 9.6608 9.50397 9.36117 9.39678L8.65318 9.14352C8.44631 9.06951 8.21629 9.10342 8.02718 9.21246C7.98504 9.23676 7.94238 9.26032 7.89922 9.28313C7.70619 9.38516 7.56075 9.55825 7.52448 9.76606L7.40025 10.4777C7.34765 10.7791 7.07458 11 6.75461 11H5.24539C4.92542 11 4.65235 10.7791 4.59975 10.4777L4.47552 9.76606C4.43925 9.55825 4.29381 9.38516 4.10078 9.28313C4.05763 9.26032 4.01497 9.23676 3.97282 9.21246C3.78371 9.10342 3.5537 9.06952 3.34683 9.14352L2.63883 9.39679C2.3392 9.50398 2.00233 9.38861 1.84234 9.12401L1.08773 7.87599C0.927745 7.6114 0.991544 7.27515 1.23857 7.08097L1.82293 6.62162C1.99311 6.48785 2.07748 6.28127 2.07339 6.07082C2.07294 6.04726 2.07271 6.02366 2.07271 6C2.07271 5.97635 2.07294 5.95274 2.07339 5.92919C2.07748 5.71874 1.99311 5.51216 1.82293 5.37838L1.23857 4.91904C0.991543 4.72486 0.927745 4.38861 1.08773 4.12402L1.84234 2.87599C2.00233 2.6114 2.33919 2.49603 2.63883 2.60322L3.34682 2.85648C3.55369 2.93049 3.78371 2.89658 3.97282 2.78754C4.01496 2.76324 4.05762 2.73968 4.10078 2.71687C4.29381 2.61484 4.43925 2.44175 4.47552 2.23394L4.59975 1.52225Z" stroke="#036BDC" stroke-linecap="round" stroke-linejoin="round"/>
<path d="M7.74533 5.99996C7.74533 6.92043 6.96386 7.66662 5.99987 7.66662C5.03587 7.66662 4.2544 6.92043 4.2544 5.99996C4.2544 5.07948 5.03587 4.33329 5.99987 4.33329C6.96386 4.33329 7.74533 5.07948 7.74533 5.99996Z" stroke="#036BDC" stroke-linecap="round" stroke-linejoin="round"/>
</svg>
