<svg width="15" height="18" viewBox="0 0 10 12" fill="none" xmlns="http://www.w3.org/2000/svg">
<path fill-rule="evenodd" clip-rule="evenodd" d="M8.91367 7.09211C8.33451 9.34301 6.1128 10.6788 3.95134 10.0757C3.23748 9.87648 2.62085 9.49163 2.13484 8.98459L1.90534 8.74558L3.69785 8.74525C4.00299 8.74519 4.25031 8.48754 4.25026 8.16978C4.2502 7.85201 4.00279 7.59445 3.69765 7.59451L0.571606 7.59509C0.425069 7.59512 0.284545 7.65577 0.180947 7.76369C0.0773499 7.87162 0.0191662 8.01798 0.0191974 8.17058L0.0198543 11.4248C0.0199183 11.7425 0.267337 12.0001 0.572479 12C0.877621 11.9999 1.12494 11.7423 1.12487 11.4245L1.1245 9.55982L1.35276 9.79753C1.97233 10.4439 2.75887 10.9343 3.66534 11.1872C6.41629 11.9548 9.24392 10.2547 9.98104 7.38995C10.06 7.08301 9.8851 6.76751 9.59035 6.68526C9.29561 6.60302 8.99265 6.78517 8.91367 7.09211ZM9.81899 4.23644C9.92261 4.12852 9.98081 3.98215 9.98078 3.82953L9.98027 0.575277C9.98022 0.257509 9.73282 -5.15043e-05 9.42767 7.72543e-09C9.12253 5.29804e-05 8.87521 0.257697 8.87526 0.575465L8.87555 2.44033L8.64731 2.20266C8.02777 1.55638 7.24105 1.06583 6.33466 0.81291C3.58371 0.0452944 0.756078 1.74538 0.0189634 4.61016C-0.0600132 4.9171 0.114901 5.2326 0.409646 5.31485C0.70439 5.39709 1.00735 5.21494 1.08633 4.908C1.66549 2.6571 3.8872 1.32131 6.04867 1.92444C6.76255 2.12364 7.3792 2.5085 7.86521 3.01558L8.0944 3.25426L6.30281 3.25426C5.99767 3.25426 5.7503 3.51186 5.7503 3.82963C5.75031 4.1474 5.99767 4.405 6.30281 4.405H9.42828C9.57483 4.405 9.71537 4.34437 9.81899 4.23644Z" fill="white"/>
</svg>
