<svg width="22" height="19" viewBox="0 0 22 19" fill="none" xmlns="http://www.w3.org/2000/svg">
<path d="M1 10V9.25C1 8.00736 2.00736 7 3.25 7H18.25C19.4926 7 20.5 8.00736 20.5 9.25V10M11.8107 3.56066L9.68934 1.43934C9.40804 1.15804 9.0265 1 8.62868 1H3.25C2.00736 1 1 2.00736 1 3.25V15.25C1 16.4926 2.00736 17.5 3.25 17.5H18.25C19.4926 17.5 20.5 16.4926 20.5 15.25V6.25C20.5 5.00736 19.4926 4 18.25 4H12.8713C12.4735 4 12.092 3.84197 11.8107 3.56066Z" stroke="white" stroke-width="1.2" stroke-linecap="round" stroke-linejoin="round"/>
</svg>
