<svg width="612" height="814" viewBox="0 0 612 814" fill="none" xmlns="http://www.w3.org/2000/svg">
<path fill-rule="evenodd" clip-rule="evenodd" d="M152.5 180.305C236.723 180.305 305 111.613 305 26.8768C305 26.5844 304.999 26.2921 304.998 26H0.00243807C0.000813409 26.2921 0 26.5844 0 26.8768C0 111.613 68.2766 180.305 152.5 180.305Z" fill="#02AFA2"/>
<path fill-rule="evenodd" clip-rule="evenodd" d="M279 21C166.334 21 75 112.334 75 225V429H75.3918V607.484C75.3918 707.233 156.254 788.096 256.004 788.096C355.753 788.096 436.615 707.233 436.615 607.484V429H483V225C483 112.334 391.666 21 279 21Z" fill="#036BDC"/>
<path fill-rule="evenodd" clip-rule="evenodd" d="M262.5 55C180.486 55 114 121.486 114 203.5V347V390V591.5C114 673.514 180.486 740 262.5 740C344.514 740 411 673.514 411 591.5V390V347V203.5C411 121.486 344.514 55 262.5 55Z" fill="#2182ED"/>
<ellipse cx="295" cy="195" rx="177" ry="172" fill="#F3F3F3"/>
<ellipse cx="225.797" cy="173.685" rx="37.0151" ry="37" fill="#404040"/>
<rect x="382" y="290" width="193" height="143" fill="#121212"/>
<path d="M468.497 149.806C475.848 175.427 476.984 202.354 471.817 228.473C466.649 254.592 455.319 279.191 438.716 300.336C422.113 321.481 400.689 338.596 376.13 350.336C351.57 362.077 324.543 368.122 297.173 367.998L298 196L468.497 149.806Z" fill="#FAAD5F"/>
<path fill-rule="evenodd" clip-rule="evenodd" d="M532.996 211H298.313V130.968C322.328 100.863 359.747 81.5075 401.784 81.5075C474.253 81.5075 533 139.03 533 209.988C533 210.326 532.999 210.663 532.996 211Z" fill="#EFBA3A"/>
<path fill-rule="evenodd" clip-rule="evenodd" d="M532.996 201.449L298 201.449V115.264C322.047 82.8435 359.517 62.0002 401.609 62.0002C474.174 62.0002 533 123.946 533 200.359C533 200.723 532.999 201.086 532.996 201.449Z" fill="#FEC63D"/>
<path fill-rule="evenodd" clip-rule="evenodd" d="M604.793 410.744L297.826 209.782L519.263 211.26C591.954 290.806 626.897 366.54 604.793 410.744Z" fill="#121212"/>
<path fill-rule="evenodd" clip-rule="evenodd" d="M604.023 739.594C490.389 795.716 353.51 750.686 298.289 639.01C243.068 527.334 290.416 391.298 404.044 335.159L604.023 739.594Z" fill="#4895E9"/>
</svg>
