<svg width="10" height="11" viewBox="0 0 10 11" fill="none" xmlns="http://www.w3.org/2000/svg">
<path d="M5.75 0.766113C5.75 0.3519 5.41421 0.0161133 5 0.0161133C4.58579 0.0161133 4.25 0.3519 4.25 0.766113V4.26611H0.75C0.335786 4.26611 0 4.6019 0 5.01611C0 5.43033 0.335786 5.76611 0.75 5.76611L4.25 5.76611V9.26611C4.25 9.68033 4.58579 10.0161 5 10.0161C5.41421 10.0161 5.75 9.68033 5.75 9.26611V5.76611L9.25 5.76611C9.66421 5.76611 10 5.43033 10 5.01611C10 4.6019 9.66421 4.26611 9.25 4.26611H5.75V0.766113Z" fill="#FFFFFF"/>
</svg>
