<svg width="20" height="20" viewBox="0 0 20 20" fill="none" xmlns="http://www.w3.org/2000/svg">
<path d="M8.62808 11.1601L13.4742 6.31397M18.4316 3.35645L14.341 16.651C13.9744 17.8425 13.7909 18.4385 13.4748 18.636C13.2005 18.8074 12.8609 18.836 12.5623 18.7121C12.2178 18.5692 11.9383 18.0111 11.3807 16.8958L8.7897 11.7139C8.7012 11.5369 8.65691 11.4488 8.5978 11.3721C8.54535 11.304 8.48481 11.2427 8.41676 11.1903C8.34182 11.1325 8.25517 11.0892 8.08608 11.0046L2.89224 8.40772C1.77693 7.85006 1.21923 7.57098 1.07632 7.22656C0.95238 6.92787 0.980645 6.588 1.152 6.31375C1.34959 5.99751 1.94555 5.8138 3.13735 5.44709L16.4319 1.35645C17.3689 1.06815 17.8376 0.924119 18.154 1.0403C18.4297 1.1415 18.647 1.35861 18.7482 1.63428C18.8644 1.9506 18.7202 2.41904 18.4322 3.35506L18.4316 3.35645Z" stroke="white" stroke-width="2" stroke-linecap="round" stroke-linejoin="round"/>
</svg>
