<svg width="18" height="12" viewBox="0 0 9 6" fill="none" xmlns="http://www.w3.org/2000/svg">
<path fill-rule="evenodd" clip-rule="evenodd" d="M0 0.45C0 0.201472 0.25184 0 0.5625 0H8.4375C8.74816 0 9 0.201472 9 0.45C9 0.698528 8.74816 0.9 8.4375 0.9H0.5625C0.25184 0.9 0 0.698528 0 0.45ZM0 3C0 2.75147 0.25184 2.55 0.5625 2.55H8.4375C8.74816 2.55 9 2.75147 9 3C9 3.24853 8.74816 3.45 8.4375 3.45H0.5625C0.25184 3.45 0 3.24853 0 3ZM0 5.55C0 5.30147 0.25184 5.1 0.5625 5.1H8.4375C8.74816 5.1 9 5.30147 9 5.55C9 5.79853 8.74816 6 8.4375 6H0.5625C0.25184 6 0 5.79853 0 5.55Z" fill="white"/>
</svg>
