<svg width="16" height="20" viewBox="0 0 16 20" fill="none" xmlns="http://www.w3.org/2000/svg">
<path d="M5 15H11M5 12H11M9.00038 1.00087C8.90484 1 8.79738 1 8.67471 1H4.2002C3.08009 1 2.51962 1 2.0918 1.21799C1.71547 1.40973 1.40973 1.71547 1.21799 2.0918C1 2.51962 1 3.08009 1 4.2002V15.8002C1 16.9203 1 17.4801 1.21799 17.9079C1.40973 18.2842 1.71547 18.5905 2.0918 18.7822C2.51921 19 3.079 19 4.19694 19L11.8031 19C12.921 19 13.48 19 13.9074 18.7822C14.2837 18.5905 14.5905 18.2842 14.7822 17.9079C15 17.4805 15 16.9215 15 15.8036V7.32568C15 7.20302 14.9999 7.09553 14.999 7M9.00038 1.00087C9.28583 1.00348 9.46572 1.01407 9.63818 1.05547C9.84225 1.10446 10.0379 1.18526 10.2168 1.29492C10.4186 1.41857 10.5918 1.59181 10.9375 1.9375L14.063 5.06298C14.4089 5.40889 14.5809 5.58136 14.7046 5.78319C14.8142 5.96214 14.8953 6.15726 14.9443 6.36133C14.9857 6.53379 14.9964 6.71454 14.999 7M9.00038 1.00087L9 3.80021C9 4.92031 9 5.48015 9.21799 5.90797C9.40973 6.2843 9.71547 6.59048 10.0918 6.78223C10.5192 7 11.079 7 12.1969 7H14.999" stroke="white" stroke-width="2" stroke-linecap="round" stroke-linejoin="round"/>
</svg>
