<svg width="14" height="10" viewBox="0 0 14 10" fill="none" xmlns="http://www.w3.org/2000/svg">
<path d="M6.66797 6.5C7.4964 6.5 8.16797 5.82843 8.16797 5C8.16797 4.17157 7.4964 3.5 6.66797 3.5C5.83954 3.5 5.16797 4.17157 5.16797 5C5.16797 5.82843 5.83954 6.5 6.66797 6.5Z" fill="#FFFFFF"/>
<path fill-rule="evenodd" clip-rule="evenodd" d="M0.0473651 5.28049C-0.0158742 5.09687 -0.0157858 4.89727 0.0476156 4.71371C0.99516 1.97038 3.60035 0 6.66574 0C9.73329 0 12.34 1.97316 13.2859 4.71951C13.3491 4.90313 13.349 5.10274 13.2856 5.2863C12.3381 8.02962 9.73288 10 6.66749 10C3.59994 10 0.993237 8.02684 0.0473651 5.28049ZM9.66797 5C9.66797 6.65685 8.32482 8 6.66797 8C5.01111 8 3.66797 6.65685 3.66797 5C3.66797 3.34315 5.01111 2 6.66797 2C8.32482 2 9.66797 3.34315 9.66797 5Z" fill="#FFFFFF"/>
</svg>
