<svg width="14" height="12" viewBox="0 0 14 12" fill="none" xmlns="http://www.w3.org/2000/svg">
<path fill-rule="evenodd" clip-rule="evenodd" d="M1.9483 0.21967C1.65541 -0.0732233 1.18053 -0.0732233 0.887639 0.21967C0.594745 0.512563 0.594745 0.987437 0.887639 1.28033L11.3876 11.7803C11.6805 12.0732 12.1554 12.0732 12.4483 11.7803C12.7412 11.4874 12.7412 11.0126 12.4483 10.7197L11.1256 9.397C12.1059 8.58631 12.8617 7.51366 13.2856 6.2863C13.349 6.10274 13.3491 5.90313 13.2859 5.71951C12.34 2.97316 9.73329 1 6.66574 1C5.52211 1 4.44254 1.27425 3.4892 1.76057L1.9483 0.21967ZM5.14399 3.41536L6.27944 4.55081C6.40336 4.51767 6.5336 4.5 6.66797 4.5C7.4964 4.5 8.16797 5.17157 8.16797 6C8.16797 6.13437 8.1503 6.26461 8.11716 6.38853L9.2526 7.52398C9.51652 7.07734 9.66797 6.55636 9.66797 6C9.66797 4.34315 8.32482 3 6.66797 3C6.11161 3 5.59063 3.15145 5.14399 3.41536Z" fill="#FFFFFF"/>
<path d="M6.48003 8.99421L8.29551 10.8097C7.7731 10.9341 7.22799 11 6.66749 11C3.59994 11 0.993237 9.02684 0.0473651 6.28049C-0.0158742 6.09687 -0.0157858 5.89727 0.0476156 5.71371C0.304715 4.96935 0.683851 4.28191 1.1611 3.67529L3.67376 6.18794C3.76692 7.69509 4.97288 8.90105 6.48003 8.99421Z" fill="#FFFFFF"/>
</svg>
