<svg width="352" height="63" viewBox="0 0 352 63" fill="none" xmlns="http://www.w3.org/2000/svg">
<g filter="url(#filter0_dd_1_465)">
<rect x="3.84595" y="3.53711" width="345" height="54" rx="10" fill="white"/>
<rect x="42.3459" y="3.53711" width="255" height="54" rx="10" fill="white"/>
<g clip-path="url(#clip0_1_465)">
<rect width="24" height="24" transform="translate(57.3459 18.5371)" fill="white"/>
<path d="M78.6266 36.9611C78.2787 37.7646 77.867 38.5043 77.39 39.1843C76.7398 40.1114 76.2074 40.7531 75.7971 41.1095C75.1611 41.6944 74.4796 41.9939 73.7499 42.011C73.226 42.011 72.5942 41.8619 71.8588 41.5595C71.121 41.2585 70.4429 41.1095 69.8229 41.1095C69.1727 41.1095 68.4754 41.2585 67.7294 41.5595C66.9824 41.8619 66.3806 42.0195 65.9204 42.0351C65.2207 42.0649 64.5232 41.7569 63.8269 41.1095C63.3826 40.7219 62.8268 40.0575 62.1609 39.1162C61.4465 38.111 60.8592 36.9455 60.3991 35.6166C59.9063 34.1813 59.6592 32.7914 59.6592 31.4458C59.6592 29.9044 59.9923 28.575 60.6594 27.461C61.1837 26.5661 61.8812 25.8602 62.7542 25.342C63.6272 24.8238 64.5704 24.5598 65.5862 24.5429C66.1421 24.5429 66.8709 24.7148 67.7767 25.0527C68.6799 25.3917 69.2599 25.5637 69.5142 25.5637C69.7043 25.5637 70.3485 25.3626 71.4407 24.9618C72.4735 24.5902 73.3452 24.4363 74.0594 24.4969C75.9944 24.6531 77.4482 25.4159 78.415 26.7901C76.6844 27.8387 75.8283 29.3074 75.8454 31.1915C75.861 32.6591 76.3934 33.8803 77.4397 34.85C77.9139 35.3 78.4434 35.6478 79.0326 35.8949C78.9048 36.2654 78.77 36.6203 78.6266 36.9611ZM74.1886 19.4972C74.1886 20.6475 73.7683 21.7215 72.9307 22.7156C71.9199 23.8973 70.6972 24.5802 69.3713 24.4725C69.3544 24.3345 69.3446 24.1892 69.3446 24.0366C69.3446 22.9324 69.8254 21.7506 70.679 20.7843C71.1052 20.2951 71.6473 19.8883 72.3046 19.5638C72.9605 19.2442 73.5809 19.0674 74.1644 19.0371C74.1815 19.1909 74.1886 19.3447 74.1886 19.4972V19.4972Z" fill="black"/>
</g>
<path d="M108.362 28.0059C108.01 26.1895 106.506 25.1738 104.709 25.1738C102.268 25.1738 100.451 27.0488 100.451 30.4668C100.451 33.9043 102.287 35.7598 104.709 35.7598C106.487 35.7598 107.99 34.7637 108.362 32.9668L110.53 32.9863C110.08 35.7793 107.795 37.7324 104.69 37.7324C100.998 37.7324 98.3225 34.9785 98.3225 30.4668C98.3225 25.9355 101.018 23.2012 104.69 23.2012C107.678 23.2012 110.041 24.959 110.53 28.0059H108.362ZM117.17 37.752C114.162 37.752 112.209 35.5645 112.209 32.2832C112.209 28.9824 114.162 26.7949 117.17 26.7949C120.158 26.7949 122.112 28.9824 122.112 32.2832C122.112 35.5645 120.158 37.752 117.17 37.752ZM117.17 36.0137C119.084 36.0137 120.002 34.3145 120.002 32.2832C120.002 30.252 119.084 28.5137 117.17 28.5137C115.217 28.5137 114.299 30.252 114.299 32.2832C114.299 34.3145 115.217 36.0137 117.17 36.0137ZM126.252 31.248V37.5371H124.162V26.9316H126.174V28.6699H126.291C126.799 27.5371 127.834 26.7949 129.416 26.7949C131.604 26.7949 133.03 28.1621 133.03 30.7988V37.5371H130.959V31.0527C130.959 29.5098 130.119 28.5918 128.713 28.5918C127.287 28.5918 126.252 29.5488 126.252 31.248ZM140.53 26.9316V28.5918H138.362V34.4121C138.362 35.6035 138.967 35.8184 139.631 35.8379C139.924 35.8379 140.393 35.7988 140.686 35.7793V37.5957C140.393 37.6348 139.944 37.6738 139.377 37.6738C137.737 37.6738 136.272 36.7754 136.291 34.8418V28.5918H134.729V26.9316H136.291V24.3926H138.362V26.9316H140.53ZM142.561 37.5371V26.9316H144.651V37.5371H142.561ZM143.615 25.291C142.893 25.291 142.287 24.7441 142.287 24.0605C142.287 23.377 142.893 22.8301 143.615 22.8301C144.319 22.8301 144.924 23.377 144.924 24.0605C144.924 24.7441 144.319 25.291 143.615 25.291ZM149.28 31.248V37.5371H147.19V26.9316H149.201V28.6699H149.319C149.826 27.5371 150.862 26.7949 152.444 26.7949C154.631 26.7949 156.057 28.1621 156.057 30.7988V37.5371H153.987V31.0527C153.987 29.5098 153.147 28.5918 151.74 28.5918C150.315 28.5918 149.28 29.5488 149.28 31.248ZM165.334 33.123V26.9316H167.405V37.5371H165.373V35.7012H165.256C164.768 36.834 163.674 37.6738 162.092 37.6738C160.041 37.6738 158.596 36.3066 158.596 33.6699V26.9316H160.686V33.416C160.686 34.8613 161.565 35.7793 162.834 35.7793C163.987 35.7793 165.334 34.9395 165.334 33.123ZM174.514 37.752C171.389 37.752 169.475 35.6035 169.475 32.3027C169.475 29.041 171.428 26.7949 174.377 26.7949C176.799 26.7949 179.084 28.2988 179.084 32.127V32.8691H171.545C171.604 34.8809 172.785 36.0332 174.533 36.0332C175.725 36.0332 176.487 35.5254 176.838 34.8809H178.948C178.479 36.5996 176.838 37.752 174.514 37.752ZM171.565 31.3066H177.033C177.033 29.6855 175.998 28.5137 174.397 28.5137C172.727 28.5137 171.643 29.8027 171.565 31.3066ZM188.323 37.5371L185.217 26.9316H187.365L189.436 34.7051H189.553L191.623 26.9316H193.772L195.823 34.666H195.94L197.99 26.9316H200.139L197.033 37.5371H194.905L192.756 29.9004H192.6L190.471 37.5371H188.323ZM201.858 37.5371V26.9316H203.948V37.5371H201.858ZM202.912 25.291C202.19 25.291 201.584 24.7441 201.584 24.0605C201.584 23.377 202.19 22.8301 202.912 22.8301C203.615 22.8301 204.221 23.377 204.221 24.0605C204.221 24.7441 203.615 25.291 202.912 25.291ZM211.448 26.9316V28.5918H209.28V34.4121C209.28 35.6035 209.885 35.8184 210.549 35.8379C210.842 35.8379 211.311 35.7988 211.604 35.7793V37.5957C211.311 37.6348 210.862 37.6738 210.295 37.6738C208.655 37.6738 207.19 36.7754 207.209 34.8418V28.5918H205.647V26.9316H207.209V24.3926H209.28V26.9316H211.448ZM215.803 31.248V37.5371H213.713V23.3965H215.764V28.6699H215.901C216.408 27.5176 217.385 26.7949 219.045 26.7949C221.233 26.7949 222.678 28.1426 222.678 30.7988V37.5371H220.588V31.0527C220.588 29.4902 219.748 28.5918 218.342 28.5918C216.877 28.5918 215.803 29.5488 215.803 31.248ZM231.467 37.5371H229.182L234.26 23.3965H236.74L241.838 37.5371H239.553L238.264 33.8066H232.756L231.467 37.5371ZM233.381 32.0098H237.639L235.549 25.9746H235.451L233.381 32.0098ZM243.459 41.5215V26.9316H245.49V28.6504H245.666C246.037 27.9863 246.76 26.7949 248.713 26.7949C251.272 26.7949 253.166 28.8066 253.166 32.2637C253.166 35.6816 251.311 37.752 248.733 37.752C246.799 37.752 246.037 36.5801 245.666 35.877H245.549V41.5215H243.459ZM245.51 32.2246C245.51 34.4512 246.487 35.9746 248.264 35.9746C250.1 35.9746 251.057 34.3535 251.057 32.2246C251.057 30.1348 250.119 28.5723 248.264 28.5723C246.467 28.5723 245.51 30.0176 245.51 32.2246ZM255.237 41.5215V26.9316H257.268V28.6504H257.444C257.815 27.9863 258.537 26.7949 260.49 26.7949C263.049 26.7949 264.944 28.8066 264.944 32.2637C264.944 35.6816 263.088 37.752 260.51 37.752C258.576 37.752 257.815 36.5801 257.444 35.877H257.326V41.5215H255.237ZM257.287 32.2246C257.287 34.4512 258.264 35.9746 260.041 35.9746C261.877 35.9746 262.834 34.3535 262.834 32.2246C262.834 30.1348 261.897 28.5723 260.041 28.5723C258.244 28.5723 257.287 30.0176 257.287 32.2246ZM269.104 23.3965V37.5371H267.014V23.3965H269.104ZM276.213 37.752C273.088 37.752 271.174 35.6035 271.174 32.3027C271.174 29.041 273.127 26.7949 276.076 26.7949C278.498 26.7949 280.783 28.2988 280.783 32.127V32.8691H273.244C273.303 34.8809 274.485 36.0332 276.233 36.0332C277.424 36.0332 278.186 35.5254 278.537 34.8809H280.647C280.178 36.5996 278.537 37.752 276.213 37.752ZM273.264 31.3066H278.733C278.733 29.6855 277.698 28.5137 276.096 28.5137C274.426 28.5137 273.342 29.8027 273.264 31.3066Z" fill="#121212" fill-opacity="0.8"/>
</g>
<defs>
<filter id="filter0_dd_1_465" x="0.845947" y="0.537109" width="351" height="62" filterUnits="userSpaceOnUse" color-interpolation-filters="sRGB">
<feFlood flood-opacity="0" result="BackgroundImageFix"/>
<feColorMatrix in="SourceAlpha" type="matrix" values="0 0 0 0 0 0 0 0 0 0 0 0 0 0 0 0 0 0 127 0" result="hardAlpha"/>
<feOffset dy="2"/>
<feGaussianBlur stdDeviation="1.5"/>
<feColorMatrix type="matrix" values="0 0 0 0 0 0 0 0 0 0 0 0 0 0 0 0 0 0 0.168 0"/>
<feBlend mode="normal" in2="BackgroundImageFix" result="effect1_dropShadow_1_465"/>
<feColorMatrix in="SourceAlpha" type="matrix" values="0 0 0 0 0 0 0 0 0 0 0 0 0 0 0 0 0 0 127 0" result="hardAlpha"/>
<feOffset/>
<feGaussianBlur stdDeviation="1.5"/>
<feColorMatrix type="matrix" values="0 0 0 0 0 0 0 0 0 0 0 0 0 0 0 0 0 0 0.084 0"/>
<feBlend mode="normal" in2="effect1_dropShadow_1_465" result="effect2_dropShadow_1_465"/>
<feBlend mode="normal" in="SourceGraphic" in2="effect2_dropShadow_1_465" result="shape"/>
</filter>
<clipPath id="clip0_1_465">
<rect width="24" height="24" fill="white" transform="translate(57.3459 18.5371)"/>
</clipPath>
</defs>
</svg>
