<svg width="352" height="63" viewBox="0 0 352 63" fill="none" xmlns="http://www.w3.org/2000/svg">
<g filter="url(#filter0_dd_1_464)">
<rect x="3.84595" y="3.53711" width="345" height="54" rx="10" fill="white"/>
<rect x="43.3459" y="3.53711" width="266" height="54" rx="10" fill="white"/>
<rect width="24" height="24" transform="translate(58.3459 18.5371)" fill="white"/>
<path fill-rule="evenodd" clip-rule="evenodd" d="M81.3859 30.7985C81.3859 29.983 81.3128 29.199 81.1769 28.4462H70.3459V32.8946H76.535C76.2684 34.3321 75.4582 35.5501 74.2403 36.3655V39.251H77.9569C80.1314 37.249 81.3859 34.3008 81.3859 30.7985Z" fill="#4285F4"/>
<path fill-rule="evenodd" clip-rule="evenodd" d="M70.3458 42.0369C73.4508 42.0369 76.054 41.0072 77.9568 39.2508L74.2402 36.3653C73.2104 37.0553 71.8931 37.4631 70.3458 37.4631C67.3506 37.4631 64.8154 35.4401 63.9111 32.7219H60.069V35.7015C61.9613 39.4599 65.8504 42.0369 70.3458 42.0369Z" fill="#34A853"/>
<path fill-rule="evenodd" clip-rule="evenodd" d="M63.9112 32.7222C63.6812 32.0322 63.5505 31.2951 63.5505 30.5372C63.5505 29.7792 63.6812 29.0422 63.9112 28.3522V25.3726H60.0691C59.2903 26.9251 58.8459 28.6815 58.8459 30.5372C58.8459 32.3928 59.2903 34.1492 60.0691 35.7017L63.9112 32.7222Z" fill="#FBBC05"/>
<path fill-rule="evenodd" clip-rule="evenodd" d="M70.3458 23.611C72.0343 23.611 73.5502 24.1912 74.742 25.3307L78.0404 22.0323C76.0488 20.1767 73.4456 19.0371 70.3458 19.0371C65.8504 19.0371 61.9613 21.6142 60.069 25.3726L63.9111 28.3521C64.8154 25.6339 67.3506 23.611 70.3458 23.611Z" fill="#EA4335"/>
<path d="M108.362 28.0059C108.01 26.1895 106.506 25.1738 104.709 25.1738C102.268 25.1738 100.451 27.0488 100.451 30.4668C100.451 33.9043 102.287 35.7598 104.709 35.7598C106.487 35.7598 107.99 34.7637 108.362 32.9668L110.53 32.9863C110.08 35.7793 107.795 37.7324 104.69 37.7324C100.998 37.7324 98.3225 34.9785 98.3225 30.4668C98.3225 25.9355 101.018 23.2012 104.69 23.2012C107.678 23.2012 110.041 24.959 110.53 28.0059H108.362ZM117.17 37.752C114.162 37.752 112.209 35.5645 112.209 32.2832C112.209 28.9824 114.162 26.7949 117.17 26.7949C120.158 26.7949 122.112 28.9824 122.112 32.2832C122.112 35.5645 120.158 37.752 117.17 37.752ZM117.17 36.0137C119.084 36.0137 120.002 34.3145 120.002 32.2832C120.002 30.252 119.084 28.5137 117.17 28.5137C115.217 28.5137 114.299 30.252 114.299 32.2832C114.299 34.3145 115.217 36.0137 117.17 36.0137ZM126.252 31.248V37.5371H124.162V26.9316H126.174V28.6699H126.291C126.799 27.5371 127.834 26.7949 129.416 26.7949C131.604 26.7949 133.03 28.1621 133.03 30.7988V37.5371H130.959V31.0527C130.959 29.5098 130.119 28.5918 128.713 28.5918C127.287 28.5918 126.252 29.5488 126.252 31.248ZM140.53 26.9316V28.5918H138.362V34.4121C138.362 35.6035 138.967 35.8184 139.631 35.8379C139.924 35.8379 140.393 35.7988 140.686 35.7793V37.5957C140.393 37.6348 139.944 37.6738 139.377 37.6738C137.737 37.6738 136.272 36.7754 136.291 34.8418V28.5918H134.729V26.9316H136.291V24.3926H138.362V26.9316H140.53ZM142.561 37.5371V26.9316H144.651V37.5371H142.561ZM143.615 25.291C142.893 25.291 142.287 24.7441 142.287 24.0605C142.287 23.377 142.893 22.8301 143.615 22.8301C144.319 22.8301 144.924 23.377 144.924 24.0605C144.924 24.7441 144.319 25.291 143.615 25.291ZM149.28 31.248V37.5371H147.19V26.9316H149.201V28.6699H149.319C149.826 27.5371 150.862 26.7949 152.444 26.7949C154.631 26.7949 156.057 28.1621 156.057 30.7988V37.5371H153.987V31.0527C153.987 29.5098 153.147 28.5918 151.74 28.5918C150.315 28.5918 149.28 29.5488 149.28 31.248ZM165.334 33.123V26.9316H167.405V37.5371H165.373V35.7012H165.256C164.768 36.834 163.674 37.6738 162.092 37.6738C160.041 37.6738 158.596 36.3066 158.596 33.6699V26.9316H160.686V33.416C160.686 34.8613 161.565 35.7793 162.834 35.7793C163.987 35.7793 165.334 34.9395 165.334 33.123ZM174.514 37.752C171.389 37.752 169.475 35.6035 169.475 32.3027C169.475 29.041 171.428 26.7949 174.377 26.7949C176.799 26.7949 179.084 28.2988 179.084 32.127V32.8691H171.545C171.604 34.8809 172.785 36.0332 174.533 36.0332C175.725 36.0332 176.487 35.5254 176.838 34.8809H178.948C178.479 36.5996 176.838 37.752 174.514 37.752ZM171.565 31.3066H177.033C177.033 29.6855 175.998 28.5137 174.397 28.5137C172.727 28.5137 171.643 29.8027 171.565 31.3066ZM188.323 37.5371L185.217 26.9316H187.365L189.436 34.7051H189.553L191.623 26.9316H193.772L195.823 34.666H195.94L197.99 26.9316H200.139L197.033 37.5371H194.905L192.756 29.9004H192.6L190.471 37.5371H188.323ZM201.858 37.5371V26.9316H203.948V37.5371H201.858ZM202.912 25.291C202.19 25.291 201.584 24.7441 201.584 24.0605C201.584 23.377 202.19 22.8301 202.912 22.8301C203.615 22.8301 204.221 23.377 204.221 24.0605C204.221 24.7441 203.615 25.291 202.912 25.291ZM211.448 26.9316V28.5918H209.28V34.4121C209.28 35.6035 209.885 35.8184 210.549 35.8379C210.842 35.8379 211.311 35.7988 211.604 35.7793V37.5957C211.311 37.6348 210.862 37.6738 210.295 37.6738C208.655 37.6738 207.19 36.7754 207.209 34.8418V28.5918H205.647V26.9316H207.209V24.3926H209.28V26.9316H211.448ZM215.803 31.248V37.5371H213.713V23.3965H215.764V28.6699H215.901C216.408 27.5176 217.385 26.7949 219.045 26.7949C221.233 26.7949 222.678 28.1426 222.678 30.7988V37.5371H220.588V31.0527C220.588 29.4902 219.748 28.5918 218.342 28.5918C216.877 28.5918 215.803 29.5488 215.803 31.248ZM239.807 27.8691C239.28 26.1895 238.01 25.1738 236.135 25.1738C233.752 25.1738 231.916 27.0488 231.916 30.4668C231.916 33.8848 233.733 35.7598 236.233 35.7598C238.489 35.7598 239.983 34.334 240.022 32.0684H236.545V30.291H242.112V31.8926C242.112 35.4668 239.651 37.7324 236.213 37.7324C232.385 37.7324 229.787 34.9395 229.787 30.4668C229.787 25.9551 232.463 23.2012 236.115 23.2012C239.182 23.2012 241.526 25.1152 242.014 27.8691H239.807ZM248.908 37.752C245.901 37.752 243.948 35.5645 243.948 32.2832C243.948 28.9824 245.901 26.7949 248.908 26.7949C251.897 26.7949 253.85 28.9824 253.85 32.2832C253.85 35.5645 251.897 37.752 248.908 37.752ZM248.908 36.0137C250.823 36.0137 251.74 34.3145 251.74 32.2832C251.74 30.252 250.823 28.5137 248.908 28.5137C246.955 28.5137 246.037 30.252 246.037 32.2832C246.037 34.3145 246.955 36.0137 248.908 36.0137ZM260.393 37.752C257.385 37.752 255.432 35.5645 255.432 32.2832C255.432 28.9824 257.385 26.7949 260.393 26.7949C263.381 26.7949 265.334 28.9824 265.334 32.2832C265.334 35.5645 263.381 37.752 260.393 37.752ZM260.393 36.0137C262.307 36.0137 263.225 34.3145 263.225 32.2832C263.225 30.252 262.307 28.5137 260.393 28.5137C258.44 28.5137 257.522 30.252 257.522 32.2832C257.522 34.3145 258.44 36.0137 260.393 36.0137ZM271.838 41.7363C269.162 41.7363 267.405 40.5449 267.209 38.5723H269.338C269.533 39.5684 270.471 40.0566 271.858 40.0566C273.518 40.0566 274.573 39.3535 274.573 37.6934V35.6035H274.436C274.065 36.2871 273.303 37.3809 271.35 37.3809C268.85 37.3809 266.916 35.5059 266.916 32.127C266.916 28.748 268.811 26.7949 271.369 26.7949C273.342 26.7949 274.065 27.9863 274.455 28.6504H274.592V26.9316H276.623V37.7715C276.623 40.4863 274.573 41.7363 271.838 41.7363ZM271.819 35.6621C273.596 35.6621 274.592 34.3535 274.592 32.166C274.592 30.0176 273.615 28.5723 271.819 28.5723C269.963 28.5723 269.045 30.1348 269.045 32.166C269.045 34.2363 270.002 35.6621 271.819 35.6621ZM281.252 23.3965V37.5371H279.162V23.3965H281.252ZM288.362 37.752C285.237 37.752 283.323 35.6035 283.323 32.3027C283.323 29.041 285.276 26.7949 288.225 26.7949C290.647 26.7949 292.932 28.2988 292.932 32.127V32.8691H285.393C285.451 34.8809 286.633 36.0332 288.381 36.0332C289.573 36.0332 290.334 35.5254 290.686 34.8809H292.795C292.326 36.5996 290.686 37.752 288.362 37.752ZM285.412 31.3066H290.881C290.881 29.6855 289.846 28.5137 288.244 28.5137C286.574 28.5137 285.49 29.8027 285.412 31.3066Z" fill="#121212" fill-opacity="0.8"/>
</g>
<defs>
<filter id="filter0_dd_1_464" x="0.845947" y="0.537109" width="351" height="62" filterUnits="userSpaceOnUse" color-interpolation-filters="sRGB">
<feFlood flood-opacity="0" result="BackgroundImageFix"/>
<feColorMatrix in="SourceAlpha" type="matrix" values="0 0 0 0 0 0 0 0 0 0 0 0 0 0 0 0 0 0 127 0" result="hardAlpha"/>
<feOffset dy="2"/>
<feGaussianBlur stdDeviation="1.5"/>
<feColorMatrix type="matrix" values="0 0 0 0 0 0 0 0 0 0 0 0 0 0 0 0 0 0 0.168 0"/>
<feBlend mode="normal" in2="BackgroundImageFix" result="effect1_dropShadow_1_464"/>
<feColorMatrix in="SourceAlpha" type="matrix" values="0 0 0 0 0 0 0 0 0 0 0 0 0 0 0 0 0 0 127 0" result="hardAlpha"/>
<feOffset/>
<feGaussianBlur stdDeviation="1.5"/>
<feColorMatrix type="matrix" values="0 0 0 0 0 0 0 0 0 0 0 0 0 0 0 0 0 0 0.084 0"/>
<feBlend mode="normal" in2="effect1_dropShadow_1_464" result="effect2_dropShadow_1_464"/>
<feBlend mode="normal" in="SourceGraphic" in2="effect2_dropShadow_1_464" result="shape"/>
</filter>
</defs>
</svg>
